<svg width="1600" height="900" viewBox="0 0 1600 900" fill="none" xmlns="http://www.w3.org/2000/svg">
  <defs>
    <linearGradient id="bg" x1="120" y1="60" x2="1500" y2="860" gradientUnits="userSpaceOnUse">
      <stop offset="0" stop-color="#07131F"/>
      <stop offset="0.5" stop-color="#0A2234"/>
      <stop offset="1" stop-color="#061826"/>
    </linearGradient>
    <radialGradient id="cyanGlow" cx="0" cy="0" r="1" gradientUnits="userSpaceOnUse" gradientTransform="translate(1210 210) rotate(90) scale(250)">
      <stop offset="0" stop-color="#12C8B0" stop-opacity="0.95"/>
      <stop offset="0.45" stop-color="#00BFFF" stop-opacity="0.42"/>
      <stop offset="1" stop-color="#00BFFF" stop-opacity="0"/>
    </radialGradient>
    <radialGradient id="tealGlow" cx="0" cy="0" r="1" gradientUnits="userSpaceOnUse" gradientTransform="translate(280 760) rotate(90) scale(300)">
      <stop offset="0" stop-color="#00BFFF" stop-opacity="0.8"/>
      <stop offset="0.55" stop-color="#12C8B0" stop-opacity="0.34"/>
      <stop offset="1" stop-color="#12C8B0" stop-opacity="0"/>
    </radialGradient>
    <filter id="blur120" x="-20%" y="-20%" width="140%" height="140%">
      <feGaussianBlur stdDeviation="120"/>
    </filter>
    <filter id="blur60" x="-20%" y="-20%" width="140%" height="140%">
      <feGaussianBlur stdDeviation="60"/>
    </filter>
    <linearGradient id="ring" x1="400" y1="120" x2="1200" y2="780" gradientUnits="userSpaceOnUse">
      <stop offset="0" stop-color="#00BFFF" stop-opacity="0"/>
      <stop offset="0.45" stop-color="#00BFFF" stop-opacity="0.45"/>
      <stop offset="1" stop-color="#12C8B0" stop-opacity="0.9"/>
    </linearGradient>
    <linearGradient id="gridStroke" x1="0" y1="0" x2="1600" y2="900" gradientUnits="userSpaceOnUse">
      <stop offset="0" stop-color="#FFFFFF" stop-opacity="0.08"/>
      <stop offset="1" stop-color="#FFFFFF" stop-opacity="0.02"/>
    </linearGradient>
  </defs>

  <rect width="1600" height="900" fill="url(#bg)"/>

  <g filter="url(#blur120)">
    <circle cx="1230" cy="210" r="240" fill="url(#cyanGlow)"/>
    <circle cx="280" cy="770" r="300" fill="url(#tealGlow)"/>
  </g>

  <g opacity="0.2">
    <path d="M-120 200C200 80 440 110 760 240C1030 349 1280 370 1720 210" stroke="url(#gridStroke)" stroke-width="2"/>
    <path d="M-120 340C180 230 470 260 760 390C1040 515 1300 525 1720 365" stroke="url(#gridStroke)" stroke-width="2"/>
    <path d="M-120 480C210 380 500 405 770 540C1070 690 1340 690 1720 525" stroke="url(#gridStroke)" stroke-width="2"/>
    <path d="M-120 620C220 540 520 570 780 710C1080 870 1360 860 1720 720" stroke="url(#gridStroke)" stroke-width="2"/>
    <path d="M-120 760C250 700 540 730 800 860C1090 1010 1370 995 1720 870" stroke="url(#gridStroke)" stroke-width="2"/>
    <path d="M240 -120C170 120 190 360 290 630C370 845 420 980 470 1060" stroke="url(#gridStroke)" stroke-width="2"/>
    <path d="M620 -120C540 130 560 370 680 640C770 840 860 980 940 1060" stroke="url(#gridStroke)" stroke-width="2"/>
    <path d="M1020 -120C930 130 950 370 1080 630C1180 840 1270 980 1360 1060" stroke="url(#gridStroke)" stroke-width="2"/>
  </g>

  <circle cx="1140" cy="250" r="150" stroke="#12C8B0" stroke-opacity="0.35" stroke-width="2" filter="url(#blur60)"/>
  <circle cx="1140" cy="250" r="92" stroke="#00BFFF" stroke-opacity="0.55" stroke-width="2"/>
  <circle cx="1140" cy="250" r="38" fill="#F7FBFF" fill-opacity="0.6"/>

  <circle cx="355" cy="710" r="100" stroke="#00BFFF" stroke-opacity="0.3" stroke-width="2" filter="url(#blur60)"/>
  <circle cx="355" cy="710" r="54" stroke="#12C8B0" stroke-opacity="0.45" stroke-width="2"/>
  <circle cx="355" cy="710" r="18" fill="#F7FBFF" fill-opacity="0.55"/>

  <g opacity="0.45">
    <path d="M900 190C995 150 1080 152 1178 188" stroke="#00BFFF" stroke-opacity="0.65" stroke-width="5" stroke-linecap="round"/>
    <path d="M905 210C1005 175 1090 179 1186 212" stroke="#12C8B0" stroke-opacity="0.55" stroke-width="3" stroke-linecap="round"/>
    <path d="M385 610C470 570 535 562 615 590" stroke="#00BFFF" stroke-opacity="0.55" stroke-width="4" stroke-linecap="round"/>
    <path d="M390 630C475 595 545 590 626 612" stroke="#12C8B0" stroke-opacity="0.45" stroke-width="2.5" stroke-linecap="round"/>
  </g>

  <g opacity="0.22">
    <circle cx="1010" cy="470" r="2.5" fill="#F7FBFF"/>
    <circle cx="1040" cy="510" r="1.8" fill="#F7FBFF"/>
    <circle cx="1085" cy="455" r="2.2" fill="#F7FBFF"/>
    <circle cx="1120" cy="530" r="1.6" fill="#F7FBFF"/>
    <circle cx="1175" cy="470" r="2" fill="#F7FBFF"/>
    <circle cx="1250" cy="520" r="1.7" fill="#F7FBFF"/>
    <circle cx="300" cy="450" r="2.1" fill="#F7FBFF"/>
    <circle cx="340" cy="420" r="1.6" fill="#F7FBFF"/>
    <circle cx="390" cy="470" r="1.9" fill="#F7FBFF"/>
    <circle cx="470" cy="445" r="1.5" fill="#F7FBFF"/>
  </g>
</svg>
